<?xml version="1.0" encoding="UTF-8"?>
<svg width="320" height="100" viewBox="0 0 320 100" fill="none" xmlns="http://www.w3.org/2000/svg">
  <defs>
    <linearGradient id="petalGradient" x1="0" y1="0" x2="1" y2="1">
      <stop offset="0" stop-color="#ff6ac4"/>
      <stop offset="1" stop-color="#a855f7"/>
    </linearGradient>
    <linearGradient id="textGradient" x1="0" y1="0" x2="1" y2="1">
      <stop offset="0" stop-color="#c026d3"/>
      <stop offset="1" stop-color="#7c3aed"/>
    </linearGradient>
  </defs>
  <g transform="translate(20 14)">
    <circle cx="30" cy="36" r="11" fill="#ffd166"/>
    <path d="M30 0c9 0 19 15 19 24s-10 9-19 9-19 0-19-9 10-24 19-24z" fill="url(#petalGradient)"/>
    <path d="M30 26c9 0 19 5 19 14s-10 24-19 24-19-15-19-24 10-14 19-14z" fill="url(#petalGradient)"/>
    <path d="M6 14c8-5 23 1 28 9s1 16-7 21-23 1-28-9 0-17 7-21z" fill="url(#petalGradient)"/>
    <path d="M54 14c-8-5-23 1-28 9s-1 16 7 21 23 1 28-9 0-17-7-21z" fill="url(#petalGradient)"/>
  </g>
  <text x="90" y="68" font-family="Inter, 'Segoe UI', sans-serif" font-size="54" font-weight="700" fill="url(#textGradient)">
    mommyshops
  </text>
</svg>
